<?xml version="1.0" standalone="no"?>
<!DOCTYPE svg PUBLIC "-//W3C//DTD SVG 20010904//EN"
 "http://www.w3.org/TR/2001/REC-SVG-20010904/DTD/svg10.dtd">
<svg version="1.0" xmlns="http://www.w3.org/2000/svg"
 width="900.000000pt" height="900.000000pt" viewBox="0 0 900.000000 900.000000"
 preserveAspectRatio="xMidYMid meet">

<g transform="translate(0.000000,900.000000) scale(0.100000,-0.100000)"
fill="#000000" stroke="none">
<path d="M4198 8963 c7 -3 16 -2 19 1 4 3 -2 6 -13 5 -11 0 -14 -3 -6 -6z"/>
<path d="M3970 8944 c-669 -80 -1340 -325 -1915 -699 -1131 -735 -1891 -1997
-2020 -3355 -23 -238 -16 -687 14 -906 72 -527 206 -912 444 -1273 612 -928
1752 -1362 2839 -1082 209 54 456 155 690 282 155 85 403 248 392 259 -5 5
-38 32 -74 60 -117 93 -289 253 -399 371 l-108 116 -64 -40 c-262 -161 -644
-295 -931 -326 -225 -25 -558 -8 -770 39 -275 62 -474 161 -705 353 -412 343
-591 788 -622 1547 -10 224 0 641 19 830 57 558 272 1189 598 1758 574 1001
1525 1724 2682 2041 126 34 138 40 95 39 -27 0 -102 -6 -165 -14z"/>
<path d="M4796 8854 c-584 -77 -1149 -364 -1554 -789 -370 -387 -614 -890
-691 -1421 -40 -276 -50 -603 -24 -846 l6 -57 51 21 c126 50 407 138 555 174
l161 39 0 105 c0 211 33 464 86 659 114 422 437 908 765 1151 191 142 517 268
775 301 129 16 350 7 489 -21 366 -72 835 -293 1370 -645 520 -342 953 -810
1328 -1433 638 -1061 785 -2332 412 -3569 -16 -52 95 193 150 332 210 530 308
1055 308 1645 0 461 -46 800 -170 1235 -259 916 -853 1786 -1609 2357 -510
385 -1093 649 -1659 749 -158 28 -581 36 -749 13z"/>
<path d="M4812 8040 c-377 -53 -674 -314 -778 -686 -22 -77 -30 -314 -15 -397
65 -341 295 -609 616 -716 313 -104 649 -38 904 177 l63 55 -6 -124 c-32 -604
-119 -1056 -308 -1599 -129 -372 -342 -804 -546 -1106 -42 -63 -81 -122 -87
-130 -8 -13 8 -33 80 -101 190 -180 501 -443 524 -443 11 0 108 119 220 269
530 713 903 1598 1005 2391 40 307 40 708 1 936 -75 434 -232 760 -490 1019
-221 220 -514 377 -815 435 -117 23 -283 32 -368 20z"/>
<path d="M4075 5989 c-460 -35 -963 -136 -1330 -267 -315 -113 -693 -306 -911
-467 -281 -207 -499 -456 -628 -720 -112 -227 -153 -392 -162 -650 -14 -366
87 -707 277 -936 105 -125 307 -252 469 -294 100 -26 317 -31 421 -10 358 72
649 360 724 716 24 114 20 307 -9 421 -56 220 -198 420 -390 545 -66 44 -110
65 -261 122 -16 6 33 34 225 129 435 214 838 354 1285 446 431 90 928 130
1302 107 108 -7 201 -13 206 -14 22 -4 127 485 162 749 l6 51 -103 16 c-155
24 -337 45 -493 57 -161 11 -628 11 -790 -1z"/>
<path d="M6557 5476 c-27 -175 -118 -542 -162 -657 -5 -13 12 -26 72 -59 171
-93 376 -246 524 -391 291 -285 539 -744 620 -1145 50 -250 11 -619 -93 -884
-82 -209 -196 -379 -378 -561 -249 -251 -603 -489 -1115 -749 -453 -231 -910
-362 -1476 -425 -197 -22 -688 -31 -871 -16 -557 46 -1095 199 -1608 456 -422
212 -872 541 -1192 874 -49 49 -88 88 -88 85 0 -11 156 -222 254 -344 113
-141 434 -468 571 -582 448 -374 941 -651 1475 -828 814 -271 1710 -303 2563
-90 674 169 1278 489 1796 953 487 436 780 986 867 1627 23 170 23 500 0 670
-101 746 -483 1372 -1107 1816 -142 101 -329 214 -478 288 -174 88 -154 92
-174 -38z"/>
<path d="M3395 4825 c-259 -76 -585 -199 -585 -221 0 -32 133 -342 240 -559
271 -550 578 -986 990 -1409 235 -241 416 -393 670 -563 414 -277 784 -418
1193 -454 457 -41 917 129 1247 461 178 178 276 338 321 526 30 124 30 304 0
428 -54 222 -195 427 -381 553 -358 242 -836 207 -1153 -86 -243 -225 -344
-563 -271 -904 6 -27 4 -26 -95 35 -545 340 -1062 817 -1454 1343 -184 246
-360 532 -477 773 -43 88 -65 122 -77 122 -10 -1 -86 -21 -168 -45z"/>
</g>
</svg>
